<?xml version="1.0" encoding="UTF-8" standalone="no"?>
<!-- Created with Inkscape (http://www.inkscape.org/) -->

<svg
   xmlns:dc="http://purl.org/dc/elements/1.1/"
   xmlns:cc="http://creativecommons.org/ns#"
   xmlns:rdf="http://www.w3.org/1999/02/22-rdf-syntax-ns#"
   xmlns:svg="http://www.w3.org/2000/svg"
   xmlns="http://www.w3.org/2000/svg"
   xmlns:sodipodi="http://sodipodi.sourceforge.net/DTD/sodipodi-0.dtd"
   xmlns:inkscape="http://www.inkscape.org/namespaces/inkscape"
   width="46.93708mm"
   height="83.767082mm"
   viewBox="0 0 46.93708 83.767082"
   version="1.1"
   id="svg5655"
   inkscape:version="0.92.4 (33fec40, 2019-01-16)"
   sodipodi:docname="pint_full.svg">
  <defs
     id="defs5649" />
  <sodipodi:namedview
     id="base"
     pagecolor="#ffffff"
     bordercolor="#666666"
     borderopacity="1.0"
     inkscape:pageopacity="0.0"
     inkscape:pageshadow="2"
     inkscape:zoom="0.35"
     inkscape:cx="-409.87143"
     inkscape:cy="81.157127"
     inkscape:document-units="mm"
     inkscape:current-layer="layer1"
     showgrid="false"
     inkscape:pagecheckerboard="true"
     inkscape:window-width="1867"
     inkscape:window-height="1056"
     inkscape:window-x="377"
     inkscape:window-y="1104"
     inkscape:window-maximized="1" />
  <metadata
     id="metadata5652">
    <rdf:RDF>
      <cc:Work
         rdf:about="">
        <dc:format>image/svg+xml</dc:format>
        <dc:type
           rdf:resource="http://purl.org/dc/dcmitype/StillImage" />
        <dc:title></dc:title>
      </cc:Work>
    </rdf:RDF>
  </metadata>
  <g
     inkscape:label="Layer 1"
     inkscape:groupmode="layer"
     id="layer1"
     transform="translate(-80.852887,-86.539077)">
    <polygon
       transform="matrix(0.26458333,0,0,0.26458333,57.304972,80.162619)"
       style="fill:#ffffff;fill-opacity:0.54901961"
       id="polygon6745"
       points="255.1,39 206.1,30 153.1,30 101.5,36.1 94.4,101.8 260.9,101 " />
    <path
       style="fill:#ffbc21;fill-opacity:1;stroke-width:0.27450174"
       inkscape:connector-curvature="0"
       id="path6747"
       d="M 126.25539,95.27568 H 82.149345 l 0.635,24.40667 4.868334,33.60546 1.402291,12.18909 c 0,0 3.598334,2.734 15.82208,2.734 12.22375,0 15.82209,-2.734 15.82209,-2.734 l 0.66145,-13.67001 5.10646,-34.63071 z" />
    <path
       style="fill:none;stroke:#d0d2d3;stroke-width:2.64583325"
       inkscape:connector-curvature="0"
       id="path6749"
       d="m 104.32143,168.98324 c 9.78958,0 13.62604,-1.77271 15.95437,-2.64583 0,-18.52083 6.19125,-40.82521 6.19125,-53.78979 0,-20.293543 -2.2225,-22.56896 -2.2225,-22.56896 0,0 -2.46062,-2.116666 -19.92312,-2.116666 v 0 c -17.462501,0 -19.923126,2.116666 -19.923126,2.116666 0,0 -2.2225,2.301875 -2.2225,22.56896 0,12.96458 6.19125,35.26896 6.19125,53.78979 2.354791,0.87312 6.164791,2.64583 15.954376,2.64583 z" />
    <path
       style="fill:none;stroke:#e9f1ff;stroke-width:2.60497046;stroke-linecap:round;stroke-opacity:1"
       inkscape:connector-curvature="0"
       id="path6751"
       d="m 87.996637,99.603834 c -0.211667,2.975096 -0.343958,9.361296 -0.343958,14.285596 0,14.95242 5.662083,30.34085 5.662083,48.29402" />
  </g>
</svg>
