<?xml version="1.0" encoding="UTF-8" standalone="no"?>
<!-- Created with Inkscape (http://www.inkscape.org/) -->

<svg
   xmlns:dc="http://purl.org/dc/elements/1.1/"
   xmlns:cc="http://creativecommons.org/ns#"
   xmlns:rdf="http://www.w3.org/1999/02/22-rdf-syntax-ns#"
   xmlns:svg="http://www.w3.org/2000/svg"
   xmlns="http://www.w3.org/2000/svg"
   xmlns:sodipodi="http://sodipodi.sourceforge.net/DTD/sodipodi-0.dtd"
   xmlns:inkscape="http://www.inkscape.org/namespaces/inkscape"
   width="46.937084mm"
   height="83.767082mm"
   viewBox="0 0 46.937084 83.767082"
   version="1.1"
   id="svg7937"
   inkscape:version="0.92.4 (33fec40, 2019-01-16)"
   sodipodi:docname="pint_half.svg">
  <defs
     id="defs7931" />
  <sodipodi:namedview
     id="base"
     pagecolor="#ffffff"
     bordercolor="#666666"
     borderopacity="1.0"
     inkscape:pageopacity="0.0"
     inkscape:pageshadow="2"
     inkscape:zoom="0.35"
     inkscape:cx="-427.01429"
     inkscape:cy="44.014274"
     inkscape:document-units="mm"
     inkscape:current-layer="layer1"
     showgrid="false"
     inkscape:pagecheckerboard="true"
     inkscape:window-width="1867"
     inkscape:window-height="1056"
     inkscape:window-x="377"
     inkscape:window-y="1104"
     inkscape:window-maximized="1" />
  <metadata
     id="metadata7934">
    <rdf:RDF>
      <cc:Work
         rdf:about="">
        <dc:format>image/svg+xml</dc:format>
        <dc:type
           rdf:resource="http://purl.org/dc/dcmitype/StillImage" />
        <dc:title></dc:title>
      </cc:Work>
    </rdf:RDF>
  </metadata>
  <g
     inkscape:label="Layer 1"
     inkscape:groupmode="layer"
     id="layer1"
     transform="translate(-85.388601,-76.711696)">
    <path
       style="fill:#ffffff;fill-opacity:0.55405411;stroke-width:0.49805602"
       d="m 128.78027,80.15128 c -17.15412,-3.120017 -30.036163,-1.89792 -39.84625,0 -2.529482,12.592389 -2.763078,25.61526 -0.594345,39.08856 l 40.964865,0.0534 c 3.1009,-15.25209 1.29072,-25.464399 -0.52427,-39.14196 z"
       id="polygon6745"
       inkscape:connector-curvature="0"
       sodipodi:nodetypes="ccccc" />
    <path
       style="fill:#ffbc21;fill-opacity:1;stroke-width:0.20431857"
       inkscape:connector-curvature="0"
       id="path6747"
       d="M 130.36561,117.60205 H 88.038527 l 2.506719,14.51808 2.113555,17.85451 0.520819,6.53539 c 0,0 3.596941,1.51528 15.81595,1.51528 12.21901,0 15.81595,-1.51528 15.81595,-1.51528 l 0.6612,-7.5764 2.13136,-18.75309 z"
       sodipodi:nodetypes="cccccscccc" />
    <path
       style="fill:none;stroke:#d0d2d3;stroke-width:2.64583325"
       inkscape:connector-curvature="0"
       id="path6749"
       d="m 108.85714,159.15586 c 9.78959,0 13.62604,-1.77271 15.95438,-2.64583 0,-18.52083 6.19125,-40.82521 6.19125,-53.78979 0,-20.293544 -2.2225,-22.56896 -2.2225,-22.56896 0,0 -2.46063,-2.116667 -19.92313,-2.116667 v 0 c -17.462497,0 -19.923122,2.116667 -19.923122,2.116667 0,0 -2.2225,2.301875 -2.2225,22.56896 0,12.96458 6.19125,35.26896 6.19125,53.78979 2.354791,0.87312 6.164791,2.64583 15.954372,2.64583 z" />
    <path
       style="fill:none;stroke:#e9f1ff;stroke-width:2.60497046;stroke-linecap:round;stroke-opacity:1"
       inkscape:connector-curvature="0"
       id="path6751"
       d="m 92.532351,89.776453 c -0.211667,2.975096 -0.343958,9.361295 -0.343958,14.285597 0,14.95242 5.662083,30.34085 5.662083,48.29402" />
  </g>
</svg>
